<svg id="Area--Streamline-Carbon.svg" xmlns="http://www.w3.org/2000/svg" viewBox="-0.5 -0.5 16 16" height="16" width="16"><desc>Area Streamline Icon: https://streamlinehq.com</desc><defs></defs><path d="M12.65625 10.3790625V4.6209375A1.8710625 1.8710625 0 1 0 10.3790625 2.34375H4.6209375A1.8710625 1.8710625 0 1 0 2.34375 4.6209375v5.758125000000001A1.8710625 1.8710625 0 1 0 4.6209375 12.65625h5.758125000000001A1.8710625 1.8710625 0 1 0 12.65625 10.3790625ZM12.1875 1.875a0.9375 0.9375 0 1 1 -0.9375 0.9375 0.938578125 0.938578125 0 0 1 0.9375 -0.9375ZM1.875 2.8125a0.9375 0.9375 0 1 1 0.9375 0.9375 0.9384374999999999 0.9384374999999999 0 0 1 -0.9375 -0.9375Zm0.9375 10.3125a0.9375 0.9375 0 1 1 0.9375 -0.9375 0.938578125 0.938578125 0 0 1 -0.9375 0.9375Zm7.5665625 -1.40625H4.6209375A1.872046875 1.872046875 0 0 0 3.28125 10.3790625V4.6209375A1.872515625 1.872515625 0 0 0 4.6209375 3.28125h5.758125000000001A1.872046875 1.872046875 0 0 0 11.71875 4.6209375v5.758125000000001A1.871765625 1.871765625 0 0 0 10.3790625 11.71875ZM12.1875 13.125a0.9375 0.9375 0 1 1 0.9375 -0.9375 0.9387656249999999 0.9387656249999999 0 0 1 -0.9375 0.9375Z" fill="#000000" stroke-width="1"></path><path id="_Transparent_Rectangle_" d="M0 0h15v15H0Z" fill="none" stroke-width="1"></path></svg>